<svg xmlns="http://www.w3.org/2000/svg" xmlns:xlink="http://www.w3.org/1999/xlink" width="300" height="300" viewBox="-8225389.68 4978010.82 1029.359999999404 1341.359999999404" preserveAspectRatio="xMinYMin meet"><g transform="matrix(1,0,0,-1,0,9957363.0)"><path fill-rule="evenodd" fill="#66cc99" stroke="#555555" stroke-width="8.942399999996026" opacity="0.6" d="M -8224688.0,4979302.5 L -8224856.0,4978945.0 L -8224854.5,4978885.0 L -8224852.5,4978866.0 L -8224846.0,4978825.0 L -8224882.5,4978621.5 L -8224882.5,4978616.0 L -8224458.0,4978384.5 L -8224410.0,4978416.5 L -8224428.0,4978390.0 L -8224452.0,4978380.5 L -8224464.5,4978375.5 L -8224544.5,4978321.5 L -8224618.5,4978270.5 L -8224748.0,4978200.0 L -8224887.5,4978133.0 L -8224968.0,4978060.5 L -8225175.5,4978264.0 L -8225340.0,4978329.0 L -8225254.5,4978496.5 L -8224943.5,4978790.5 L -8224957.0,4978863.0 L -8224959.0,4978869.5 L -8224960.5,4978879.5 L -8224962.5,4978902.0 L -8224938.5,4978939.5 L -8224926.5,4978950.5 L -8224891.0,4978952.0 L -8224688.0,4979302.5 z" /></g></svg>